<svg xmlns="http://www.w3.org/2000/svg" xmlns:xlink="http://www.w3.org/1999/xlink" width="500" zoomAndPan="magnify" viewBox="0 0 375 374.999991" height="500" preserveAspectRatio="xMidYMid meet" version="1.0"><defs><g/><clipPath id="0765028a8f"><path d="M 122.570312 77.71875 L 250 77.71875 L 250 199.746094 L 122.570312 199.746094 Z M 122.570312 77.71875 " clip-rule="nonzero"/></clipPath><clipPath id="31e1add634"><path d="M 250.027344 86.390625 L 256.691406 86.390625 L 256.691406 92.460938 L 250.027344 92.460938 Z M 250.027344 86.390625 " clip-rule="nonzero"/></clipPath><clipPath id="ae8a431f9f"><path d="M 237 75.40625 L 246 75.40625 L 246 88 L 237 88 Z M 237 75.40625 " clip-rule="nonzero"/></clipPath><clipPath id="8434f91928"><path d="M 247.425781 179.164062 L 256.691406 179.164062 L 256.691406 186 L 247.425781 186 Z M 247.425781 179.164062 " clip-rule="nonzero"/></clipPath><clipPath id="5536b66874"><path d="M 117.941406 97 L 125 97 L 125 102 L 117.941406 102 Z M 117.941406 97 " clip-rule="nonzero"/></clipPath></defs><g clip-path="url(#0765028a8f)"><path fill="#ffffff" d="M 207.8125 78.628906 C 205.523438 78.628906 203.230469 79.074219 201.042969 79.964844 L 134.816406 106.886719 C 125.636719 110.621094 121.203125 121.125 124.933594 130.304688 L 148.273438 187.707031 C 150.078125 192.152344 153.511719 195.628906 157.933594 197.496094 C 162.355469 199.359375 167.238281 199.394531 171.6875 197.585938 L 237.914062 170.660156 C 242.363281 168.851562 245.839844 165.421875 247.703125 161 C 249.570312 156.578125 249.601562 151.691406 247.792969 147.246094 L 224.457031 89.84375 C 222.652344 85.398438 219.21875 81.917969 214.796875 80.054688 C 212.546875 79.105469 210.179688 78.628906 207.8125 78.628906 Z M 164.917969 199.746094 C 162.441406 199.746094 159.964844 199.25 157.609375 198.257812 C 152.984375 196.304688 149.398438 192.667969 147.503906 188.019531 L 124.167969 130.613281 C 120.265625 121.011719 124.902344 110.023438 134.503906 106.121094 L 200.730469 79.195312 C 205.382812 77.304688 210.492188 77.339844 215.117188 79.292969 C 219.746094 81.242188 223.335938 84.878906 225.222656 89.53125 L 248.5625 146.933594 C 250.453125 151.585938 250.417969 156.695312 248.46875 161.320312 C 246.515625 165.945312 242.878906 169.535156 238.226562 171.425781 L 238.070312 171.042969 L 238.226562 171.425781 L 172 198.351562 C 169.710938 199.28125 167.3125 199.746094 164.917969 199.746094 " fill-opacity="1" fill-rule="nonzero"/></g><path fill="#ffffff" d="M 148.363281 85.78125 C 148.152344 85.78125 147.972656 85.625 147.949219 85.410156 C 147.929688 85.183594 148.09375 84.980469 148.320312 84.957031 L 148.546875 84.9375 C 148.773438 84.914062 148.972656 85.082031 148.996094 85.3125 C 149.015625 85.539062 148.847656 85.738281 148.621094 85.761719 L 148.402344 85.78125 C 148.390625 85.78125 148.375 85.78125 148.363281 85.78125 Z M 144.890625 86.410156 C 144.707031 86.410156 144.539062 86.285156 144.492188 86.097656 C 144.433594 85.878906 144.566406 85.652344 144.785156 85.59375 L 145 85.539062 C 145.222656 85.484375 145.449219 85.617188 145.503906 85.839844 C 145.5625 86.058594 145.425781 86.285156 145.207031 86.339844 L 144.996094 86.394531 C 144.960938 86.402344 144.925781 86.410156 144.890625 86.410156 Z M 141.5625 87.574219 C 141.402344 87.574219 141.25 87.480469 141.183594 87.324219 C 141.089844 87.113281 141.183594 86.871094 141.394531 86.777344 L 141.601562 86.691406 C 141.8125 86.601562 142.054688 86.699219 142.144531 86.90625 C 142.234375 87.117188 142.136719 87.359375 141.925781 87.449219 L 141.730469 87.539062 C 141.675781 87.5625 141.617188 87.574219 141.5625 87.574219 Z M 138.457031 89.242188 C 138.320312 89.242188 138.1875 89.175781 138.109375 89.054688 C 137.984375 88.863281 138.039062 88.605469 138.230469 88.480469 L 138.421875 88.359375 C 138.613281 88.238281 138.871094 88.296875 138.992188 88.488281 C 139.113281 88.683594 139.054688 88.941406 138.863281 89.058594 L 138.679688 89.175781 C 138.609375 89.222656 138.53125 89.242188 138.457031 89.242188 Z M 135.648438 91.378906 C 135.53125 91.378906 135.417969 91.332031 135.335938 91.238281 C 135.183594 91.070312 135.199219 90.808594 135.371094 90.65625 L 135.539062 90.503906 C 135.710938 90.355469 135.972656 90.375 136.125 90.546875 C 136.273438 90.71875 136.257812 90.980469 136.082031 91.128906 L 135.921875 91.273438 C 135.84375 91.34375 135.742188 91.378906 135.648438 91.378906 Z M 133.203125 93.921875 C 133.109375 93.921875 133.015625 93.890625 132.9375 93.828125 C 132.761719 93.683594 132.734375 93.421875 132.882812 93.246094 L 133.027344 93.070312 C 133.171875 92.898438 133.433594 92.875 133.609375 93.023438 C 133.785156 93.167969 133.804688 93.429688 133.660156 93.605469 L 133.523438 93.769531 C 133.441406 93.871094 133.320312 93.921875 133.203125 93.921875 Z M 131.179688 96.816406 C 131.109375 96.816406 131.035156 96.796875 130.96875 96.757812 C 130.773438 96.640625 130.707031 96.386719 130.824219 96.191406 L 130.9375 95.996094 C 131.054688 95.800781 131.3125 95.738281 131.507812 95.855469 C 131.703125 95.972656 131.765625 96.226562 131.648438 96.425781 L 131.539062 96.609375 C 131.460938 96.742188 131.320312 96.816406 131.179688 96.816406 " fill-opacity="1" fill-rule="nonzero"/><path fill="#ffffff" d="M 239.1875 184.859375 C 239.089844 184.859375 238.996094 184.828125 238.917969 184.757812 C 238.742188 184.609375 238.722656 184.347656 238.871094 184.175781 L 239.015625 184.011719 C 239.160156 183.835938 239.421875 183.816406 239.597656 183.960938 C 239.769531 184.109375 239.792969 184.371094 239.644531 184.546875 L 239.5 184.714844 C 239.417969 184.8125 239.304688 184.859375 239.1875 184.859375 Z M 236.683594 187.347656 C 236.566406 187.347656 236.449219 187.296875 236.367188 187.203125 C 236.21875 187.027344 236.242188 186.765625 236.414062 186.617188 L 236.578125 186.476562 C 236.753906 186.328125 237.011719 186.34375 237.164062 186.519531 C 237.3125 186.691406 237.292969 186.953125 237.121094 187.101562 L 236.953125 187.25 C 236.875 187.3125 236.777344 187.347656 236.683594 187.347656 Z M 233.824219 189.414062 C 233.683594 189.414062 233.546875 189.34375 233.46875 189.214844 C 233.351562 189.019531 233.414062 188.765625 233.609375 188.648438 L 233.792969 188.535156 C 233.988281 188.414062 234.242188 188.472656 234.363281 188.664062 C 234.484375 188.859375 234.425781 189.113281 234.234375 189.238281 L 234.039062 189.355469 C 233.972656 189.394531 233.898438 189.414062 233.824219 189.414062 Z M 230.679688 191.011719 C 230.515625 191.011719 230.363281 190.914062 230.296875 190.753906 C 230.210938 190.542969 230.3125 190.304688 230.523438 190.214844 L 230.71875 190.132812 C 230.929688 190.042969 231.175781 190.140625 231.261719 190.351562 C 231.351562 190.5625 231.253906 190.804688 231.042969 190.894531 L 230.835938 190.980469 C 230.785156 191.003906 230.730469 191.011719 230.679688 191.011719 Z M 227.324219 192.097656 C 227.136719 192.097656 226.964844 191.96875 226.921875 191.78125 C 226.867188 191.558594 227.003906 191.332031 227.226562 191.28125 L 227.4375 191.226562 C 227.660156 191.175781 227.882812 191.308594 227.9375 191.53125 C 227.992188 191.753906 227.859375 191.976562 227.636719 192.03125 L 227.417969 192.085938 C 227.386719 192.09375 227.355469 192.097656 227.324219 192.097656 Z M 223.835938 192.640625 C 223.621094 192.640625 223.441406 192.476562 223.421875 192.257812 C 223.40625 192.03125 223.578125 191.832031 223.804688 191.8125 L 224.023438 191.796875 C 224.25 191.777344 224.449219 191.945312 224.46875 192.171875 C 224.488281 192.402344 224.320312 192.601562 224.09375 192.621094 L 223.867188 192.636719 C 223.855469 192.640625 223.847656 192.640625 223.835938 192.640625 Z M 209.929688 192.707031 L 209.707031 192.707031 C 209.480469 192.707031 209.292969 192.519531 209.292969 192.289062 C 209.292969 192.0625 209.480469 191.878906 209.707031 191.878906 L 209.929688 191.878906 C 210.160156 191.878906 210.34375 192.0625 210.34375 192.289062 C 210.34375 192.519531 210.160156 192.707031 209.929688 192.707031 Z M 213.460938 192.707031 L 213.242188 192.707031 C 213.011719 192.707031 212.828125 192.519531 212.828125 192.289062 C 212.828125 192.0625 213.011719 191.878906 213.242188 191.878906 L 213.460938 191.878906 C 213.691406 191.878906 213.875 192.0625 213.875 192.289062 C 213.875 192.519531 213.691406 192.707031 213.460938 192.707031 Z M 216.996094 192.707031 L 216.773438 192.707031 C 216.546875 192.707031 216.359375 192.519531 216.359375 192.289062 C 216.359375 192.0625 216.546875 191.878906 216.773438 191.878906 L 216.996094 191.878906 C 217.222656 191.878906 217.410156 192.0625 217.410156 192.289062 C 217.410156 192.519531 217.222656 192.707031 216.996094 192.707031 Z M 220.527344 192.707031 L 220.308594 192.707031 C 220.078125 192.707031 219.890625 192.519531 219.890625 192.289062 C 219.890625 192.0625 220.078125 191.878906 220.308594 191.878906 L 220.527344 191.878906 C 220.757812 191.878906 220.941406 192.0625 220.941406 192.289062 C 220.941406 192.519531 220.757812 192.707031 220.527344 192.707031 " fill-opacity="1" fill-rule="nonzero"/><path fill="#008037" d="M 222.109375 188.140625 L 150.621094 188.140625 C 140.464844 188.140625 132.234375 179.910156 132.234375 169.757812 L 132.234375 107.792969 C 132.234375 97.636719 140.464844 89.40625 150.621094 89.40625 L 222.109375 89.40625 C 232.265625 89.40625 240.496094 97.636719 240.496094 107.792969 L 240.496094 169.757812 C 240.496094 179.910156 232.265625 188.140625 222.109375 188.140625 " fill-opacity="1" fill-rule="nonzero"/><path fill="#ffffff" d="M 170.511719 78.878906 C 170.40625 78.878906 170.296875 78.835938 170.21875 78.757812 C 170.058594 78.59375 170.058594 78.332031 170.21875 78.171875 L 170.753906 77.632812 C 170.917969 77.472656 171.179688 77.472656 171.339844 77.632812 C 171.503906 77.796875 171.503906 78.058594 171.339844 78.21875 L 170.804688 78.757812 C 170.722656 78.835938 170.617188 78.878906 170.511719 78.878906 " fill-opacity="1" fill-rule="nonzero"/><path fill="#ffffff" d="M 166.746094 82.640625 C 166.640625 82.640625 166.535156 82.601562 166.457031 82.519531 C 166.292969 82.359375 166.292969 82.09375 166.457031 81.933594 L 166.992188 81.394531 C 167.15625 81.234375 167.417969 81.234375 167.578125 81.394531 C 167.738281 81.558594 167.738281 81.820312 167.578125 81.980469 L 167.039062 82.519531 C 166.960938 82.601562 166.855469 82.640625 166.746094 82.640625 " fill-opacity="1" fill-rule="nonzero"/><path fill="#ffffff" d="M 167.285156 78.878906 C 167.179688 78.878906 167.074219 78.835938 166.992188 78.757812 L 166.457031 78.21875 C 166.292969 78.058594 166.292969 77.796875 166.457031 77.632812 C 166.617188 77.472656 166.878906 77.472656 167.039062 77.632812 L 167.578125 78.171875 C 167.738281 78.332031 167.738281 78.59375 167.578125 78.757812 C 167.496094 78.835938 167.390625 78.878906 167.285156 78.878906 " fill-opacity="1" fill-rule="nonzero"/><path fill="#ffffff" d="M 171.046875 82.640625 C 170.941406 82.640625 170.835938 82.601562 170.753906 82.519531 L 170.21875 81.980469 C 170.058594 81.820312 170.058594 81.558594 170.21875 81.394531 C 170.378906 81.234375 170.640625 81.234375 170.804688 81.394531 L 171.339844 81.933594 C 171.503906 82.09375 171.503906 82.359375 171.339844 82.519531 C 171.261719 82.601562 171.152344 82.640625 171.046875 82.640625 " fill-opacity="1" fill-rule="nonzero"/><path fill="#ffffff" d="M 139.382812 194.402344 C 139.273438 194.402344 139.171875 194.363281 139.089844 194.28125 C 138.925781 194.117188 138.925781 193.855469 139.089844 193.695312 L 139.625 193.15625 C 139.789062 192.996094 140.050781 192.996094 140.210938 193.15625 C 140.371094 193.320312 140.375 193.582031 140.210938 193.742188 L 139.671875 194.28125 C 139.59375 194.363281 139.488281 194.402344 139.382812 194.402344 " fill-opacity="1" fill-rule="nonzero"/><path fill="#ffffff" d="M 135.617188 198.164062 C 135.511719 198.164062 135.40625 198.125 135.324219 198.042969 C 135.164062 197.882812 135.164062 197.621094 135.324219 197.457031 L 135.863281 196.917969 C 136.023438 196.757812 136.285156 196.757812 136.449219 196.917969 C 136.609375 197.082031 136.609375 197.34375 136.449219 197.503906 L 135.910156 198.042969 C 135.832031 198.125 135.726562 198.164062 135.617188 198.164062 " fill-opacity="1" fill-rule="nonzero"/><path fill="#ffffff" d="M 136.15625 194.402344 C 136.050781 194.402344 135.945312 194.363281 135.863281 194.28125 L 135.324219 193.742188 C 135.164062 193.582031 135.164062 193.320312 135.324219 193.15625 C 135.488281 192.996094 135.75 192.996094 135.910156 193.15625 L 136.449219 193.695312 C 136.609375 193.855469 136.609375 194.117188 136.449219 194.28125 C 136.367188 194.363281 136.261719 194.402344 136.15625 194.402344 " fill-opacity="1" fill-rule="nonzero"/><path fill="#ffffff" d="M 139.917969 198.164062 C 139.8125 198.164062 139.707031 198.125 139.625 198.042969 L 139.089844 197.503906 C 138.925781 197.34375 138.925781 197.082031 139.089844 196.917969 C 139.25 196.757812 139.511719 196.757812 139.671875 196.917969 L 140.210938 197.457031 C 140.375 197.621094 140.371094 197.882812 140.210938 198.042969 C 140.132812 198.125 140.023438 198.164062 139.917969 198.164062 " fill-opacity="1" fill-rule="nonzero"/><path fill="#ffffff" d="M 248.449219 118.875 C 247.152344 118.875 246.097656 119.929688 246.097656 121.226562 C 246.097656 122.527344 247.152344 123.582031 248.449219 123.582031 C 249.75 123.582031 250.804688 122.527344 250.804688 121.226562 C 250.804688 119.929688 249.75 118.875 248.449219 118.875 Z M 248.449219 124.410156 C 246.695312 124.410156 245.269531 122.984375 245.269531 121.226562 C 245.269531 119.476562 246.695312 118.046875 248.449219 118.046875 C 250.203125 118.046875 251.632812 119.476562 251.632812 121.226562 C 251.632812 122.984375 250.203125 124.410156 248.449219 124.410156 " fill-opacity="1" fill-rule="nonzero"/><path fill="#ffffff" d="M 215.867188 83.109375 C 214.710938 83.109375 213.546875 83.21875 212.386719 83.445312 L 141.585938 97.140625 C 131.773438 99.039062 125.332031 108.570312 127.230469 118.382812 L 139.101562 179.746094 C 140.777344 188.402344 148.386719 194.433594 156.894531 194.4375 C 158.035156 194.4375 159.1875 194.328125 160.34375 194.105469 L 231.144531 180.410156 C 235.898438 179.488281 240.007812 176.773438 242.722656 172.757812 C 245.433594 168.746094 246.421875 163.917969 245.5 159.164062 L 233.628906 97.800781 C 232.707031 93.046875 229.992188 88.933594 225.980469 86.222656 C 222.949219 84.171875 219.449219 83.109375 215.867188 83.109375 Z M 156.894531 195.261719 C 148 195.261719 140.039062 188.957031 138.289062 179.90625 L 126.417969 118.542969 C 124.433594 108.277344 131.167969 98.3125 141.429688 96.328125 L 212.226562 82.632812 C 217.199219 81.671875 222.25 82.703125 226.445312 85.535156 C 230.640625 88.371094 233.476562 92.671875 234.441406 97.644531 L 246.3125 159.007812 C 247.273438 163.976562 246.242188 169.027344 243.40625 173.222656 C 240.570312 177.417969 236.273438 180.257812 231.300781 181.21875 L 231.222656 180.8125 L 231.300781 181.21875 L 160.503906 194.917969 C 159.289062 195.152344 158.085938 195.261719 156.894531 195.261719 " fill-opacity="1" fill-rule="nonzero"/><g clip-path="url(#31e1add634)"><path fill="#ffffff" d="M 250.300781 92.394531 L 257.035156 89.8125 L 255.210938 86.425781 Z M 250.300781 92.394531 " fill-opacity="1" fill-rule="nonzero"/></g><g clip-path="url(#ae8a431f9f)"><path fill="#ffffff" d="M 242.328125 75.410156 L 237.726562 87.027344 L 245.902344 77.867188 Z M 242.328125 75.410156 " fill-opacity="1" fill-rule="nonzero"/></g><g clip-path="url(#8434f91928)"><path fill="#ffffff" d="M 247.667969 179.210938 L 255.996094 185.96875 L 256.972656 182.070312 Z M 247.667969 179.210938 " fill-opacity="1" fill-rule="nonzero"/></g><path fill="#ffffff" d="M 126.890625 174.824219 L 119.851562 174.636719 L 120.230469 178.375 Z M 126.890625 174.824219 " fill-opacity="1" fill-rule="nonzero"/><path fill="#ffffff" d="M 121.796875 192.9375 L 130.289062 184.179688 L 119.488281 189.386719 Z M 121.796875 192.9375 " fill-opacity="1" fill-rule="nonzero"/><g clip-path="url(#5536b66874)"><path fill="#ffffff" d="M 124.199219 101.886719 L 118.660156 97.199219 L 117.945312 99.824219 Z M 124.199219 101.886719 " fill-opacity="1" fill-rule="nonzero"/></g><path fill="#ffffff" d="M 189.175781 158.554688 C 178.34375 156.128906 177.117188 147.21875 176.980469 145.453125 L 182.371094 144.007812 C 182.988281 143.84375 183.425781 143.347656 183.511719 142.710938 C 183.597656 142.078125 183.308594 141.484375 182.757812 141.160156 L 167.285156 132.0625 C 166.832031 131.792969 166.304688 131.722656 165.796875 131.859375 C 165.289062 131.996094 164.867188 132.320312 164.605469 132.777344 L 155.757812 148.394531 C 155.441406 148.953125 155.488281 149.609375 155.878906 150.117188 C 156.269531 150.621094 156.894531 150.832031 157.515625 150.667969 L 162.925781 149.21875 C 165.617188 158.019531 172.480469 163.871094 179.527344 163.871094 C 180.613281 163.871094 181.710938 163.730469 182.792969 163.441406 C 185.316406 162.765625 187.59375 161.285156 189.378906 159.15625 C 189.460938 159.058594 189.488281 158.921875 189.445312 158.796875 C 189.40625 158.675781 189.300781 158.585938 189.175781 158.554688 " fill-opacity="1" fill-rule="nonzero"/><path fill="#ffffff" d="M 209.449219 158.863281 C 216.695312 151.09375 217.757812 140.472656 211.835938 134.546875 C 210.113281 132.828125 207.976562 131.671875 205.480469 131.117188 C 205.34375 131.085938 205.203125 131.132812 205.113281 131.238281 C 205.023438 131.34375 205.003906 131.492188 205.054688 131.617188 C 208.597656 140.21875 200.675781 147.292969 199.144531 148.554688 L 195.214844 144.628906 C 194.765625 144.175781 194.117188 144.046875 193.523438 144.289062 C 192.929688 144.53125 192.5625 145.078125 192.554688 145.71875 L 192.410156 163.667969 C 192.410156 164.195312 192.609375 164.6875 192.980469 165.058594 C 193.351562 165.425781 193.835938 165.628906 194.355469 165.628906 C 194.363281 165.628906 194.367188 165.628906 194.371094 165.628906 L 212.324219 165.484375 C 212.960938 165.480469 213.507812 165.109375 213.75 164.515625 C 213.992188 163.925781 213.863281 163.277344 213.410156 162.824219 L 209.449219 158.863281 " fill-opacity="1" fill-rule="nonzero"/><path fill="#ffffff" d="M 208.203125 125.335938 C 208.339844 124.828125 208.265625 124.300781 208 123.847656 L 198.902344 108.375 C 198.578125 107.820312 197.980469 107.535156 197.347656 107.617188 C 196.714844 107.707031 196.21875 108.140625 196.054688 108.761719 L 194.601562 114.171875 C 184.25 111.78125 174.523438 116.171875 172.355469 124.261719 C 171.675781 126.789062 171.820312 129.507812 172.773438 132.121094 C 172.820312 132.25 172.9375 132.34375 173.074219 132.359375 C 173.210938 132.375 173.347656 132.316406 173.429688 132.203125 C 178.199219 125.257812 188.789062 127.730469 190.820312 128.28125 L 189.394531 133.617188 C 189.226562 134.234375 189.4375 134.859375 189.945312 135.25 C 190.226562 135.46875 190.558594 135.582031 190.894531 135.582031 C 191.15625 135.582031 191.421875 135.511719 191.667969 135.375 L 207.28125 126.523438 C 207.738281 126.265625 208.066406 125.84375 208.203125 125.335938 " fill-opacity="1" fill-rule="nonzero"/><g fill="#ffffff" fill-opacity="1"><g transform="translate(81.444689, 225.624009)"><g><path d="M 15.796875 -18.984375 C 16.453125 -18.984375 16.898438 -18.910156 17.140625 -18.765625 C 17.378906 -18.617188 17.5 -18.363281 17.5 -18 L 17.5 -11.96875 C 17.5 -11.613281 17.335938 -11.359375 17.015625 -11.203125 C 16.703125 -11.054688 16.171875 -10.984375 15.421875 -10.984375 C 14.929688 -10.984375 14.550781 -11.015625 14.28125 -11.078125 C 14.019531 -11.148438 13.835938 -11.253906 13.734375 -11.390625 C 13.628906 -11.523438 13.578125 -11.71875 13.578125 -11.96875 C 13.578125 -13.019531 13.289062 -13.859375 12.71875 -14.484375 C 12.144531 -15.109375 11.332031 -15.421875 10.28125 -15.421875 C 8.820312 -15.421875 7.710938 -14.894531 6.953125 -13.84375 C 6.203125 -12.800781 5.828125 -11.296875 5.828125 -9.328125 C 5.828125 -7.378906 6.226562 -5.875 7.03125 -4.8125 C 7.832031 -3.75 8.96875 -3.21875 10.4375 -3.21875 C 11.34375 -3.21875 12.210938 -3.335938 13.046875 -3.578125 C 13.890625 -3.828125 14.800781 -4.207031 15.78125 -4.71875 C 15.945312 -4.800781 16.109375 -4.84375 16.265625 -4.84375 C 16.753906 -4.84375 17.160156 -4.40625 17.484375 -3.53125 C 17.628906 -3.132812 17.703125 -2.78125 17.703125 -2.46875 C 17.703125 -1.9375 17.460938 -1.550781 16.984375 -1.3125 C 14.742188 -0.207031 12.507812 0.34375 10.28125 0.34375 C 8.5625 0.34375 7.046875 -0.046875 5.734375 -0.828125 C 4.421875 -1.617188 3.40625 -2.742188 2.6875 -4.203125 C 1.976562 -5.660156 1.625 -7.367188 1.625 -9.328125 C 1.625 -11.273438 1.972656 -12.976562 2.671875 -14.4375 C 3.367188 -15.90625 4.335938 -17.03125 5.578125 -17.8125 C 6.828125 -18.59375 8.234375 -18.984375 9.796875 -18.984375 C 11.628906 -18.984375 12.992188 -18.328125 13.890625 -17.015625 L 13.890625 -18 C 13.890625 -18.351562 14.039062 -18.601562 14.34375 -18.75 C 14.644531 -18.90625 15.128906 -18.984375 15.796875 -18.984375 Z M 15.796875 -18.984375 "/></g></g></g><g fill="#ffffff" fill-opacity="1"><g transform="translate(100.725876, 225.624009)"><g><path d="M 9.46875 -14.859375 C 11.769531 -14.859375 13.429688 -14.359375 14.453125 -13.359375 C 15.484375 -12.367188 16 -10.945312 16 -9.09375 L 16 -4.5625 C 16 -4.132812 16.085938 -3.800781 16.265625 -3.5625 C 16.453125 -3.332031 16.710938 -3.21875 17.046875 -3.21875 L 17.53125 -3.21875 C 17.78125 -3.21875 17.972656 -3.171875 18.109375 -3.078125 C 18.242188 -2.992188 18.34375 -2.835938 18.40625 -2.609375 C 18.476562 -2.378906 18.515625 -2.046875 18.515625 -1.609375 C 18.515625 -1.160156 18.476562 -0.820312 18.40625 -0.59375 C 18.34375 -0.363281 18.242188 -0.207031 18.109375 -0.125 C 17.972656 -0.0390625 17.78125 0 17.53125 0 L 15.765625 0 C 15.117188 0 14.546875 -0.128906 14.046875 -0.390625 C 13.554688 -0.660156 13.175781 -1.085938 12.90625 -1.671875 C 12.082031 -1.023438 11.207031 -0.523438 10.28125 -0.171875 C 9.363281 0.171875 8.421875 0.34375 7.453125 0.34375 C 6.265625 0.34375 5.238281 0.144531 4.375 -0.25 C 3.519531 -0.65625 2.863281 -1.234375 2.40625 -1.984375 C 1.957031 -2.734375 1.734375 -3.617188 1.734375 -4.640625 C 1.734375 -6.097656 2.25 -7.226562 3.28125 -8.03125 C 4.320312 -8.84375 5.773438 -9.25 7.640625 -9.25 C 9.023438 -9.25 10.503906 -9.09375 12.078125 -8.78125 L 12.078125 -9.234375 C 12.078125 -9.941406 11.859375 -10.460938 11.421875 -10.796875 C 10.984375 -11.128906 10.207031 -11.296875 9.09375 -11.296875 C 8.476562 -11.296875 7.789062 -11.21875 7.03125 -11.0625 C 6.269531 -10.914062 5.519531 -10.71875 4.78125 -10.46875 C 4.601562 -10.414062 4.445312 -10.390625 4.3125 -10.390625 C 4.050781 -10.390625 3.816406 -10.484375 3.609375 -10.671875 C 3.410156 -10.867188 3.226562 -11.195312 3.0625 -11.65625 C 2.90625 -12.113281 2.828125 -12.488281 2.828125 -12.78125 C 2.828125 -13.320312 3.066406 -13.679688 3.546875 -13.859375 C 4.484375 -14.191406 5.472656 -14.441406 6.515625 -14.609375 C 7.566406 -14.773438 8.550781 -14.859375 9.46875 -14.859375 Z M 8.03125 -6.015625 C 7.289062 -6.015625 6.726562 -5.882812 6.34375 -5.625 C 5.96875 -5.363281 5.78125 -4.984375 5.78125 -4.484375 C 5.78125 -3.984375 5.960938 -3.601562 6.328125 -3.34375 C 6.703125 -3.09375 7.242188 -2.96875 7.953125 -2.96875 C 8.671875 -2.96875 9.382812 -3.109375 10.09375 -3.390625 C 10.800781 -3.679688 11.460938 -4.082031 12.078125 -4.59375 L 12.078125 -5.59375 C 10.691406 -5.875 9.34375 -6.015625 8.03125 -6.015625 Z M 8.03125 -6.015625 "/></g></g></g><g fill="#ffffff" fill-opacity="1"><g transform="translate(120.007064, 225.624009)"><g><path d="M 14.5625 -14.859375 C 15.445312 -14.859375 16.285156 -14.566406 17.078125 -13.984375 C 17.535156 -13.648438 17.765625 -13.207031 17.765625 -12.65625 C 17.765625 -12.3125 17.671875 -11.90625 17.484375 -11.4375 C 17.296875 -10.96875 17.082031 -10.609375 16.84375 -10.359375 C 16.613281 -10.117188 16.367188 -10 16.109375 -10 C 15.953125 -10 15.789062 -10.039062 15.625 -10.125 C 15.039062 -10.457031 14.4375 -10.625 13.8125 -10.625 C 13 -10.625 12.242188 -10.363281 11.546875 -9.84375 C 10.847656 -9.332031 10.285156 -8.625 9.859375 -7.71875 C 9.429688 -6.820312 9.21875 -5.820312 9.21875 -4.71875 L 9.21875 -3.21875 L 13.734375 -3.21875 C 13.984375 -3.21875 14.175781 -3.171875 14.3125 -3.078125 C 14.445312 -2.992188 14.546875 -2.835938 14.609375 -2.609375 C 14.679688 -2.378906 14.71875 -2.046875 14.71875 -1.609375 C 14.71875 -1.160156 14.679688 -0.820312 14.609375 -0.59375 C 14.546875 -0.363281 14.445312 -0.207031 14.3125 -0.125 C 14.175781 -0.0390625 13.984375 0 13.734375 0 L 2.984375 0 C 2.734375 0 2.539062 -0.0390625 2.40625 -0.125 C 2.269531 -0.207031 2.164062 -0.363281 2.09375 -0.59375 C 2.03125 -0.820312 2 -1.160156 2 -1.609375 C 2 -2.046875 2.03125 -2.378906 2.09375 -2.609375 C 2.164062 -2.835938 2.269531 -2.992188 2.40625 -3.078125 C 2.539062 -3.171875 2.734375 -3.21875 2.984375 -3.21875 L 5.296875 -3.21875 L 5.296875 -11.296875 L 3.453125 -11.296875 C 3.203125 -11.296875 3.007812 -11.335938 2.875 -11.421875 C 2.738281 -11.503906 2.632812 -11.660156 2.5625 -11.890625 C 2.5 -12.117188 2.46875 -12.453125 2.46875 -12.890625 C 2.46875 -13.335938 2.5 -13.675781 2.5625 -13.90625 C 2.632812 -14.132812 2.738281 -14.289062 2.875 -14.375 C 3.007812 -14.46875 3.203125 -14.515625 3.453125 -14.515625 L 7.765625 -14.515625 C 8.117188 -14.515625 8.367188 -14.4375 8.515625 -14.28125 C 8.671875 -14.132812 8.75 -13.882812 8.75 -13.53125 L 8.75 -10.109375 C 9.53125 -11.628906 10.429688 -12.800781 11.453125 -13.625 C 12.472656 -14.445312 13.507812 -14.859375 14.5625 -14.859375 Z M 14.5625 -14.859375 "/></g></g></g><g fill="#ffffff" fill-opacity="1"><g transform="translate(139.288252, 225.624009)"><g><path d="M 5.875 -20.609375 C 6.226562 -20.609375 6.476562 -20.53125 6.625 -20.375 C 6.78125 -20.226562 6.859375 -19.976562 6.859375 -19.625 L 6.859375 -13 C 7.398438 -13.601562 8.019531 -14.0625 8.71875 -14.375 C 9.414062 -14.695312 10.175781 -14.859375 11 -14.859375 C 12.363281 -14.859375 13.5625 -14.519531 14.59375 -13.84375 C 15.625 -13.175781 16.410156 -12.265625 16.953125 -11.109375 C 17.492188 -9.960938 17.765625 -8.675781 17.765625 -7.25 C 17.765625 -5.832031 17.492188 -4.546875 16.953125 -3.390625 C 16.410156 -2.242188 15.625 -1.332031 14.59375 -0.65625 C 13.5625 0.0078125 12.363281 0.34375 11 0.34375 C 10 0.34375 9.085938 0.113281 8.265625 -0.34375 C 7.453125 -0.8125 6.773438 -1.46875 6.234375 -2.3125 L 6.234375 -0.984375 C 6.234375 -0.628906 6.15625 -0.375 6 -0.21875 C 5.851562 -0.0703125 5.601562 0 5.25 0 L 1.734375 0 C 1.472656 0 1.273438 -0.0390625 1.140625 -0.125 C 1.003906 -0.21875 0.898438 -0.378906 0.828125 -0.609375 C 0.765625 -0.835938 0.734375 -1.175781 0.734375 -1.625 C 0.734375 -2.0625 0.765625 -2.394531 0.828125 -2.625 C 0.898438 -2.851562 1.003906 -3.007812 1.140625 -3.09375 C 1.273438 -3.175781 1.472656 -3.21875 1.734375 -3.21875 L 2.9375 -3.21875 L 2.9375 -17.390625 L 1.40625 -17.390625 C 1.15625 -17.390625 0.960938 -17.429688 0.828125 -17.515625 C 0.691406 -17.597656 0.585938 -17.753906 0.515625 -17.984375 C 0.453125 -18.210938 0.421875 -18.546875 0.421875 -18.984375 C 0.421875 -19.429688 0.453125 -19.769531 0.515625 -20 C 0.585938 -20.226562 0.691406 -20.382812 0.828125 -20.46875 C 0.960938 -20.5625 1.15625 -20.609375 1.40625 -20.609375 Z M 10.375 -11.296875 C 9.695312 -11.296875 9.085938 -11.140625 8.546875 -10.828125 C 8.003906 -10.515625 7.566406 -10.050781 7.234375 -9.4375 C 6.910156 -8.820312 6.75 -8.09375 6.75 -7.25 C 6.75 -6.414062 6.910156 -5.691406 7.234375 -5.078125 C 7.566406 -4.460938 8.003906 -4 8.546875 -3.6875 C 9.085938 -3.375 9.695312 -3.21875 10.375 -3.21875 C 11.019531 -3.21875 11.582031 -3.378906 12.0625 -3.703125 C 12.539062 -4.035156 12.910156 -4.503906 13.171875 -5.109375 C 13.429688 -5.722656 13.5625 -6.4375 13.5625 -7.25 C 13.5625 -8.070312 13.429688 -8.785156 13.171875 -9.390625 C 12.910156 -10.003906 12.539062 -10.472656 12.0625 -10.796875 C 11.582031 -11.128906 11.019531 -11.296875 10.375 -11.296875 Z M 10.375 -11.296875 "/></g></g></g><g fill="#ffffff" fill-opacity="1"><g transform="translate(158.56944, 225.624009)"><g><path d="M 9.640625 -14.859375 C 11.234375 -14.859375 12.625 -14.53125 13.8125 -13.875 C 15.007812 -13.226562 15.929688 -12.328125 16.578125 -11.171875 C 17.222656 -10.023438 17.546875 -8.71875 17.546875 -7.25 C 17.546875 -5.789062 17.222656 -4.484375 16.578125 -3.328125 C 15.929688 -2.179688 15.007812 -1.28125 13.8125 -0.625 C 12.625 0.0195312 11.234375 0.34375 9.640625 0.34375 C 8.046875 0.34375 6.648438 0.0195312 5.453125 -0.625 C 4.265625 -1.28125 3.347656 -2.179688 2.703125 -3.328125 C 2.066406 -4.484375 1.75 -5.789062 1.75 -7.25 C 1.75 -8.71875 2.066406 -10.023438 2.703125 -11.171875 C 3.347656 -12.328125 4.265625 -13.226562 5.453125 -13.875 C 6.648438 -14.53125 8.046875 -14.859375 9.640625 -14.859375 Z M 9.640625 -11.296875 C 8.890625 -11.296875 8.234375 -11.128906 7.671875 -10.796875 C 7.117188 -10.472656 6.691406 -10.003906 6.390625 -9.390625 C 6.097656 -8.785156 5.953125 -8.070312 5.953125 -7.25 C 5.953125 -6.4375 6.097656 -5.722656 6.390625 -5.109375 C 6.691406 -4.503906 7.117188 -4.035156 7.671875 -3.703125 C 8.234375 -3.378906 8.890625 -3.21875 9.640625 -3.21875 C 10.398438 -3.21875 11.054688 -3.378906 11.609375 -3.703125 C 12.160156 -4.035156 12.585938 -4.503906 12.890625 -5.109375 C 13.191406 -5.722656 13.34375 -6.4375 13.34375 -7.25 C 13.34375 -8.070312 13.191406 -8.785156 12.890625 -9.390625 C 12.585938 -10.003906 12.160156 -10.472656 11.609375 -10.796875 C 11.054688 -11.128906 10.398438 -11.296875 9.640625 -11.296875 Z M 9.640625 -11.296875 "/></g></g></g><g fill="#ffffff" fill-opacity="1"><g transform="translate(177.850627, 225.624009)"><g><path d="M 11.890625 -14.859375 C 12.847656 -14.859375 13.679688 -14.648438 14.390625 -14.234375 C 15.109375 -13.816406 15.660156 -13.222656 16.046875 -12.453125 C 16.441406 -11.679688 16.640625 -10.773438 16.640625 -9.734375 L 16.640625 -3.21875 L 17.84375 -3.21875 C 18.09375 -3.21875 18.285156 -3.171875 18.421875 -3.078125 C 18.554688 -2.992188 18.65625 -2.835938 18.71875 -2.609375 C 18.789062 -2.378906 18.828125 -2.046875 18.828125 -1.609375 C 18.828125 -1.160156 18.789062 -0.820312 18.71875 -0.59375 C 18.65625 -0.363281 18.554688 -0.207031 18.421875 -0.125 C 18.285156 -0.0390625 18.09375 0 17.84375 0 L 11.96875 0 C 11.71875 0 11.523438 -0.0390625 11.390625 -0.125 C 11.253906 -0.207031 11.148438 -0.363281 11.078125 -0.59375 C 11.015625 -0.820312 10.984375 -1.160156 10.984375 -1.609375 C 10.984375 -2.046875 11.015625 -2.378906 11.078125 -2.609375 C 11.148438 -2.835938 11.253906 -2.992188 11.390625 -3.078125 C 11.523438 -3.171875 11.71875 -3.21875 11.96875 -3.21875 L 12.703125 -3.21875 L 12.703125 -8.8125 C 12.703125 -9.625 12.5625 -10.238281 12.28125 -10.65625 C 12 -11.082031 11.53125 -11.296875 10.875 -11.296875 C 10.257812 -11.296875 9.679688 -11.039062 9.140625 -10.53125 C 8.597656 -10.019531 8.160156 -9.335938 7.828125 -8.484375 C 7.503906 -7.640625 7.34375 -6.738281 7.34375 -5.78125 L 7.34375 -3.21875 L 8.078125 -3.21875 C 8.328125 -3.21875 8.519531 -3.171875 8.65625 -3.078125 C 8.789062 -2.992188 8.890625 -2.835938 8.953125 -2.609375 C 9.023438 -2.378906 9.0625 -2.046875 9.0625 -1.609375 C 9.0625 -1.160156 9.023438 -0.820312 8.953125 -0.59375 C 8.890625 -0.363281 8.789062 -0.207031 8.65625 -0.125 C 8.519531 -0.0390625 8.328125 0 8.078125 0 L 2.203125 0 C 1.953125 0 1.753906 -0.0390625 1.609375 -0.125 C 1.472656 -0.207031 1.367188 -0.363281 1.296875 -0.59375 C 1.234375 -0.820312 1.203125 -1.160156 1.203125 -1.609375 C 1.203125 -2.046875 1.234375 -2.378906 1.296875 -2.609375 C 1.367188 -2.835938 1.472656 -2.992188 1.609375 -3.078125 C 1.753906 -3.171875 1.953125 -3.21875 2.203125 -3.21875 L 3.40625 -3.21875 L 3.40625 -11.296875 L 1.890625 -11.296875 C 1.640625 -11.296875 1.441406 -11.335938 1.296875 -11.421875 C 1.160156 -11.503906 1.054688 -11.660156 0.984375 -11.890625 C 0.921875 -12.117188 0.890625 -12.453125 0.890625 -12.890625 C 0.890625 -13.335938 0.921875 -13.675781 0.984375 -13.90625 C 1.054688 -14.132812 1.160156 -14.289062 1.296875 -14.375 C 1.441406 -14.46875 1.640625 -14.515625 1.890625 -14.515625 L 5.71875 -14.515625 C 6.070312 -14.515625 6.320312 -14.4375 6.46875 -14.28125 C 6.625 -14.132812 6.703125 -13.882812 6.703125 -13.53125 L 6.703125 -11.25 C 8.085938 -13.65625 9.816406 -14.859375 11.890625 -14.859375 Z M 11.890625 -14.859375 "/></g></g></g><g fill="#ffffff" fill-opacity="1"><g transform="translate(197.131815, 225.624009)"><g><path d="M 15.625 -10.921875 C 15.875 -10.921875 16.066406 -10.875 16.203125 -10.78125 C 16.347656 -10.6875 16.453125 -10.507812 16.515625 -10.25 C 16.585938 -10 16.625 -9.628906 16.625 -9.140625 C 16.625 -8.648438 16.585938 -8.28125 16.515625 -8.03125 C 16.453125 -7.78125 16.347656 -7.609375 16.203125 -7.515625 C 16.066406 -7.429688 15.875 -7.390625 15.625 -7.390625 L 3.65625 -7.390625 C 3.40625 -7.390625 3.210938 -7.429688 3.078125 -7.515625 C 2.941406 -7.609375 2.835938 -7.78125 2.765625 -8.03125 C 2.703125 -8.28125 2.671875 -8.648438 2.671875 -9.140625 C 2.671875 -9.628906 2.703125 -10 2.765625 -10.25 C 2.835938 -10.507812 2.941406 -10.6875 3.078125 -10.78125 C 3.210938 -10.875 3.40625 -10.921875 3.65625 -10.921875 Z M 15.625 -10.921875 "/></g></g></g><g fill="#ffffff" fill-opacity="1"><g transform="translate(216.413003, 225.624009)"><g><path d="M 18.609375 -18.640625 C 18.859375 -18.640625 19.050781 -18.59375 19.1875 -18.5 C 19.332031 -18.414062 19.4375 -18.257812 19.5 -18.03125 C 19.570312 -17.800781 19.609375 -17.46875 19.609375 -17.03125 C 19.609375 -16.59375 19.570312 -16.253906 19.5 -16.015625 C 19.4375 -15.785156 19.332031 -15.628906 19.1875 -15.546875 C 19.050781 -15.460938 18.859375 -15.421875 18.609375 -15.421875 L 17.734375 -15.421875 L 16.15625 -0.671875 C 16.125 -0.410156 16.046875 -0.207031 15.921875 -0.0625 C 15.804688 0.0820312 15.617188 0.1875 15.359375 0.25 C 15.097656 0.3125 14.726562 0.34375 14.25 0.34375 C 13.5625 0.34375 13.0625 0.265625 12.75 0.109375 C 12.4375 -0.046875 12.21875 -0.304688 12.09375 -0.671875 L 9.578125 -8.078125 L 7.03125 -0.671875 C 6.90625 -0.304688 6.6875 -0.046875 6.375 0.109375 C 6.0625 0.265625 5.554688 0.34375 4.859375 0.34375 C 4.367188 0.34375 3.992188 0.3125 3.734375 0.25 C 3.484375 0.1875 3.300781 0.0820312 3.1875 -0.0625 C 3.082031 -0.207031 3.015625 -0.410156 2.984375 -0.671875 L 1.453125 -15.421875 L 0.671875 -15.421875 C 0.421875 -15.421875 0.226562 -15.460938 0.09375 -15.546875 C -0.0390625 -15.628906 -0.140625 -15.785156 -0.203125 -16.015625 C -0.273438 -16.253906 -0.3125 -16.59375 -0.3125 -17.03125 C -0.3125 -17.46875 -0.273438 -17.800781 -0.203125 -18.03125 C -0.140625 -18.257812 -0.0390625 -18.414062 0.09375 -18.5 C 0.226562 -18.59375 0.421875 -18.640625 0.671875 -18.640625 L 6.859375 -18.640625 C 7.109375 -18.640625 7.300781 -18.59375 7.4375 -18.5 C 7.582031 -18.414062 7.6875 -18.257812 7.75 -18.03125 C 7.820312 -17.800781 7.859375 -17.46875 7.859375 -17.03125 C 7.859375 -16.59375 7.820312 -16.253906 7.75 -16.015625 C 7.6875 -15.785156 7.582031 -15.628906 7.4375 -15.546875 C 7.300781 -15.460938 7.109375 -15.421875 6.859375 -15.421875 L 5.03125 -15.421875 L 5.859375 -6.25 L 8.15625 -12.96875 C 8.226562 -13.21875 8.367188 -13.40625 8.578125 -13.53125 C 8.785156 -13.65625 9.132812 -13.71875 9.625 -13.71875 C 10.15625 -13.71875 10.535156 -13.664062 10.765625 -13.5625 C 10.992188 -13.46875 11.140625 -13.304688 11.203125 -13.078125 L 13.515625 -6.25 L 14.359375 -15.421875 L 12.734375 -15.421875 C 12.484375 -15.421875 12.289062 -15.460938 12.15625 -15.546875 C 12.019531 -15.628906 11.914062 -15.785156 11.84375 -16.015625 C 11.78125 -16.253906 11.75 -16.59375 11.75 -17.03125 C 11.75 -17.46875 11.78125 -17.800781 11.84375 -18.03125 C 11.914062 -18.257812 12.019531 -18.414062 12.15625 -18.5 C 12.289062 -18.59375 12.484375 -18.640625 12.734375 -18.640625 Z M 18.609375 -18.640625 "/></g></g></g><g fill="#ffffff" fill-opacity="1"><g transform="translate(235.694191, 225.624009)"><g><path d="M 10.84375 -14.515625 C 11.195312 -14.515625 11.445312 -14.4375 11.59375 -14.28125 C 11.75 -14.132812 11.828125 -13.882812 11.828125 -13.53125 L 11.828125 -3.21875 L 16.25 -3.21875 C 16.5 -3.21875 16.691406 -3.171875 16.828125 -3.078125 C 16.960938 -2.992188 17.0625 -2.835938 17.125 -2.609375 C 17.195312 -2.378906 17.234375 -2.046875 17.234375 -1.609375 C 17.234375 -1.160156 17.195312 -0.820312 17.125 -0.59375 C 17.0625 -0.363281 16.960938 -0.207031 16.828125 -0.125 C 16.691406 -0.0390625 16.5 0 16.25 0 L 3.609375 0 C 3.359375 0 3.164062 -0.0390625 3.03125 -0.125 C 2.894531 -0.207031 2.789062 -0.363281 2.71875 -0.59375 C 2.65625 -0.820312 2.625 -1.160156 2.625 -1.609375 C 2.625 -2.046875 2.65625 -2.378906 2.71875 -2.609375 C 2.789062 -2.835938 2.894531 -2.992188 3.03125 -3.078125 C 3.164062 -3.171875 3.359375 -3.21875 3.609375 -3.21875 L 7.90625 -3.21875 L 7.90625 -11.296875 L 4.5625 -11.296875 C 4.300781 -11.296875 4.101562 -11.335938 3.96875 -11.421875 C 3.832031 -11.503906 3.726562 -11.660156 3.65625 -11.890625 C 3.59375 -12.117188 3.5625 -12.453125 3.5625 -12.890625 C 3.5625 -13.335938 3.59375 -13.675781 3.65625 -13.90625 C 3.726562 -14.132812 3.832031 -14.289062 3.96875 -14.375 C 4.101562 -14.46875 4.300781 -14.515625 4.5625 -14.515625 Z M 9.8125 -21.40625 C 10.5625 -21.40625 11.082031 -21.328125 11.375 -21.171875 C 11.675781 -21.023438 11.828125 -20.773438 11.828125 -20.421875 L 11.828125 -17.84375 C 11.828125 -17.488281 11.6875 -17.234375 11.40625 -17.078125 C 11.132812 -16.929688 10.628906 -16.859375 9.890625 -16.859375 C 9.160156 -16.859375 8.644531 -16.929688 8.34375 -17.078125 C 8.050781 -17.234375 7.90625 -17.488281 7.90625 -17.84375 L 7.90625 -20.421875 C 7.90625 -20.785156 8.039062 -21.039062 8.3125 -21.1875 C 8.582031 -21.332031 9.082031 -21.40625 9.8125 -21.40625 Z M 9.8125 -21.40625 "/></g></g></g><g fill="#ffffff" fill-opacity="1"><g transform="translate(254.975378, 225.624009)"><g><path d="M 14.234375 -14.859375 C 14.898438 -14.859375 15.375 -14.78125 15.65625 -14.625 C 15.945312 -14.476562 16.09375 -14.226562 16.09375 -13.875 L 16.09375 -10.5625 C 16.09375 -10.195312 15.976562 -9.9375 15.75 -9.78125 C 15.519531 -9.632812 15.148438 -9.5625 14.640625 -9.5625 C 14.085938 -9.5625 13.707031 -9.671875 13.5 -9.890625 C 12.875 -10.554688 12.160156 -11.023438 11.359375 -11.296875 C 10.566406 -11.578125 9.648438 -11.71875 8.609375 -11.71875 C 7.992188 -11.71875 7.507812 -11.609375 7.15625 -11.390625 C 6.800781 -11.171875 6.625 -10.878906 6.625 -10.515625 C 6.625 -10.066406 7.015625 -9.75 7.796875 -9.5625 C 8.203125 -9.457031 8.894531 -9.359375 9.875 -9.265625 C 10.851562 -9.148438 11.664062 -9.035156 12.3125 -8.921875 C 12.957031 -8.804688 13.566406 -8.632812 14.140625 -8.40625 C 14.972656 -8.0625 15.625 -7.578125 16.09375 -6.953125 C 16.570312 -6.335938 16.8125 -5.523438 16.8125 -4.515625 C 16.8125 -3.515625 16.566406 -2.648438 16.078125 -1.921875 C 15.585938 -1.191406 14.875 -0.628906 13.9375 -0.234375 C 13 0.148438 11.875 0.34375 10.5625 0.34375 C 9.101562 0.34375 7.75 -0.0234375 6.5 -0.765625 L 6.5 -0.640625 C 6.5 -0.285156 6.347656 -0.0351562 6.046875 0.109375 C 5.742188 0.265625 5.257812 0.34375 4.59375 0.34375 C 3.914062 0.34375 3.4375 0.265625 3.15625 0.109375 C 2.875 -0.0351562 2.734375 -0.285156 2.734375 -0.640625 L 2.734375 -4.140625 C 2.734375 -4.492188 2.851562 -4.75 3.09375 -4.90625 C 3.34375 -5.0625 3.722656 -5.140625 4.234375 -5.140625 C 4.878906 -5.140625 5.316406 -4.992188 5.546875 -4.703125 C 6.066406 -4.035156 6.734375 -3.550781 7.546875 -3.25 C 8.367188 -2.945312 9.269531 -2.796875 10.25 -2.796875 C 11.914062 -2.796875 12.75 -3.226562 12.75 -4.09375 C 12.75 -4.363281 12.628906 -4.578125 12.390625 -4.734375 C 12.160156 -4.890625 11.816406 -5.019531 11.359375 -5.125 C 11.097656 -5.175781 10.488281 -5.269531 9.53125 -5.40625 C 8.476562 -5.53125 7.570312 -5.671875 6.8125 -5.828125 C 6.050781 -5.992188 5.363281 -6.25 4.75 -6.59375 C 3.300781 -7.394531 2.578125 -8.65625 2.578125 -10.375 C 2.578125 -11.28125 2.820312 -12.070312 3.3125 -12.75 C 3.800781 -13.4375 4.476562 -13.957031 5.34375 -14.3125 C 6.207031 -14.675781 7.179688 -14.859375 8.265625 -14.859375 C 9.847656 -14.859375 11.25 -14.476562 12.46875 -13.71875 L 12.46875 -13.875 C 12.46875 -14.226562 12.597656 -14.476562 12.859375 -14.625 C 13.117188 -14.78125 13.578125 -14.859375 14.234375 -14.859375 Z M 14.234375 -14.859375 "/></g></g></g><g fill="#ffffff" fill-opacity="1"><g transform="translate(274.256566, 225.624009)"><g><path d="M 9.859375 -14.859375 C 11.453125 -14.859375 12.804688 -14.515625 13.921875 -13.828125 C 15.046875 -13.140625 15.894531 -12.1875 16.46875 -10.96875 C 17.039062 -9.75 17.328125 -8.351562 17.328125 -6.78125 C 17.328125 -6.425781 17.25 -6.175781 17.09375 -6.03125 C 16.945312 -5.882812 16.695312 -5.8125 16.34375 -5.8125 L 6.25 -5.8125 C 6.445312 -4.976562 6.875 -4.335938 7.53125 -3.890625 C 8.1875 -3.441406 9.015625 -3.21875 10.015625 -3.21875 C 11.640625 -3.21875 13.398438 -3.503906 15.296875 -4.078125 C 15.421875 -4.117188 15.546875 -4.140625 15.671875 -4.140625 C 15.898438 -4.140625 16.097656 -4.035156 16.265625 -3.828125 C 16.441406 -3.617188 16.597656 -3.265625 16.734375 -2.765625 C 16.835938 -2.378906 16.890625 -2.050781 16.890625 -1.78125 C 16.890625 -1.5 16.828125 -1.28125 16.703125 -1.125 C 16.585938 -0.976562 16.394531 -0.859375 16.125 -0.765625 C 15.070312 -0.421875 14 -0.148438 12.90625 0.046875 C 11.820312 0.242188 10.753906 0.34375 9.703125 0.34375 C 8.117188 0.34375 6.75 0.0195312 5.59375 -0.625 C 4.4375 -1.28125 3.554688 -2.179688 2.953125 -3.328125 C 2.359375 -4.472656 2.0625 -5.78125 2.0625 -7.25 C 2.0625 -8.71875 2.375 -10.023438 3 -11.171875 C 3.625 -12.328125 4.53125 -13.226562 5.71875 -13.875 C 6.90625 -14.53125 8.285156 -14.859375 9.859375 -14.859375 Z M 9.859375 -11.296875 C 7.941406 -11.296875 6.757812 -10.488281 6.3125 -8.875 L 13.234375 -8.875 C 13.046875 -9.632812 12.660156 -10.226562 12.078125 -10.65625 C 11.503906 -11.082031 10.765625 -11.296875 9.859375 -11.296875 Z M 9.859375 -11.296875 "/></g></g></g></svg>